# xmcd
#
# Track frame offsets: 
#        150
#        14545
#        28415
#        40580
#        52000
#        64617
#        77700
#        91787
#        105827
#        119735
#        130845
#        146595
#        160985
#        176570
#        190620
#        203482
#
# Disc length: 2838 seconds
#
# Revision: 1
# Processed by: cddbd v1.5.1PL0 Copyright (c) Steve Scherf et al.
# Submitted via: ExactAudioCopy v0.95b2
#
DISCID=d10b1410
DTITLE=Various Artist - Big Walter Horton and Alfred "Blues King" Harris: Ham
DTITLE=onica Blues Kings
DYEAR=1900
DGENRE=Blues
TTITLE0=Big Walter Horton - Back Home to Mama
TTITLE1=Big Walter Horton - Hard-Hearted Woman
TTITLE2=Tommy Brown - Southern Women
TTITLE3=Tommy Brown - Remember Me
TTITLE4=Tommy Brown - Card Game
TTITLE5=Tommy Brown - Nosey Neighbors
TTITLE6=Big Walter Horton - Hard-Hearted Woman [alternate]
TTITLE7=Big Walter Horton - Back Home to Mama [alternate]
TTITLE8=Alfred Harris - My Life Blues
TTITLE9=Alfred Harris - Up Side The Wall
TTITLE10=James Bannister - Gold Digger
TTITLE11=Alfred Harris - Sundown Boogie Blues
TTITLE12=Alfred Harris - Miss Ida
TTITLE13=Alfred Harris - Great Lakes Boogie
TTITLE14=James Bannister - Blues and Trouble
TTITLE15=Alfred Harris - Up Side The Wall [alternate]
EXTD=ID3G: 0
EXTT0=
EXTT1=
EXTT2=
EXTT3=
EXTT4=
EXTT5=
EXTT6=
EXTT7=
EXTT8=
EXTT9=
EXTT10=
EXTT11=
EXTT12=
EXTT13=
EXTT14=
EXTT15=
PLAYORDER=
